# xmcd CD database file
#
# Track frame offsets:
#	180
#	21228
#	32635
#	51563
#	67559
#	90757
#	135533
#	153002
#	184506
#	207357
#	224228
#	256129
#	280052
#
# Disc length: 3865 seconds
#
# Revision: 0
# Processed by: cddbd v1.4PL0 Copyright (c) Steve Scherf et al.
# Submitted via: CDex 1.51
#
DISCID=ac0f170d
DTITLE=Williams Wetsox - Mei Herz Gherd'n Blues
DYEAR=1900
DGENRE=Blues
TTITLE0=Motorradfahrersong
TTITLE1=mei Herz gherdn Blues
TTITLE2=total verliebt
TTITLE3=wenn Du lebst
TTITLE4=des is da boogie
TTITLE5=Mitternachtsblues
TTITLE6=fahr ma furt
TTITLE7=mit wem wuist Du geh'
TTITLE8=wach auf
TTITLE9=arme Woit
TTITLE10=Volksfest
TTITLE11=traurige Zeit'n
TTITLE12=mia san boarische buam
EXTD=
EXTT0=
EXTT1=
EXTT2=
EXTT3=
EXTT4=
EXTT5=
EXTT6=
EXTT7=
EXTT8=
EXTT9=
EXTT10=
EXTT11=
EXTT12=
PLAYORDER=
